<svg width="373" height="53" viewBox="0 0 373 53" fill="none" xmlns="http://www.w3.org/2000/svg">
<path d="M0.00260332 4.89175C-0.0167934 4.36028 0.0724315 3.83269 0.262519 3.34001C0.452607 2.84733 0.739679 2.40509 1.10434 2.03655C1.95003 1.29947 3.01297 0.899902 4.11083 0.899902C5.20868 0.899902 6.27162 1.30335 7.11732 2.03655C7.4781 2.41285 7.76517 2.85897 7.95914 3.35165C8.1531 3.84432 8.25397 4.37191 8.25397 4.90726C8.25397 5.44261 8.1531 5.9702 7.95914 6.46288C7.76517 6.95556 7.4781 7.40168 7.11732 7.77798C6.2755 8.51505 5.21644 8.91462 4.11859 8.91462C3.02073 8.91462 1.96167 8.51117 1.11985 7.77798C0.755196 7.40556 0.464245 6.95556 0.274157 6.459C0.0840695 5.95857 -0.00903471 5.4271 0.00260332 4.89175ZM7.80008 41.28H0.429331V12.3595H7.80008V41.28Z" fill="white"/>
<path d="M12.5949 26.6821C12.5949 22.1976 13.6734 18.5937 15.8264 15.8626C16.835 14.5359 18.154 13.4729 19.667 12.7591C21.1799 12.0453 22.8441 11.704 24.5161 11.766C25.9437 11.6923 27.3713 11.9522 28.6826 12.5225C29.9938 13.0928 31.1498 13.9617 32.0653 15.0518L32.3796 12.2975H39.5137V40.5158C39.5719 42.8628 38.9589 45.1749 37.7525 47.1922C36.5693 49.0853 34.8468 50.5905 32.8063 51.5177C30.4593 52.5496 27.9144 53.0539 25.3502 52.9957C23.1855 52.9957 21.0441 52.5573 19.0501 51.7194C17.2424 51.0327 15.6441 49.8883 14.4182 48.4025L17.8902 43.6542C18.767 44.6861 19.8609 45.5124 21.0946 46.0788C22.3282 46.6452 23.6743 46.9323 25.0321 46.9245C26.8166 47.0254 28.5701 46.428 29.9123 45.2603C30.5136 44.6357 30.9791 43.8986 31.2778 43.0878C31.5765 42.2771 31.7007 41.4158 31.6464 40.5546V38.9913C30.7541 39.996 29.6524 40.7874 28.411 41.315C27.1735 41.8426 25.8312 42.087 24.4851 42.0327C22.8286 42.0753 21.1838 41.7262 19.6902 41.0085C18.1967 40.2908 16.901 39.2318 15.904 37.9167C13.7083 35.1623 12.626 31.4886 12.626 27.0041V26.6743H12.5872L12.5949 26.6821ZM20.4506 27.2407C20.3303 29.4287 20.8928 31.6011 22.0644 33.4593C22.5416 34.177 23.1972 34.7667 23.9653 35.1623C24.7373 35.558 25.5946 35.7559 26.4636 35.7287C27.4877 35.7986 28.508 35.5891 29.4157 35.1158C30.3235 34.6464 31.0839 33.9365 31.6115 33.0636V20.7622C31.0994 19.8933 30.3507 19.1795 29.4507 18.7101C28.5507 18.2407 27.5381 18.0273 26.5256 18.0971C25.645 18.07 24.7761 18.2678 23.9963 18.6713C23.2166 19.0747 22.5571 19.6721 22.0799 20.4053C20.9976 21.9377 20.4506 24.2071 20.4506 27.2407V27.2407Z" fill="white"/>
<path d="M52.0323 12.3134L52.2806 15.766C53.2737 14.4703 54.55 13.4307 56.0087 12.7363C57.4673 12.0419 59.0695 11.7043 60.6794 11.7625C63.7751 11.7625 66.0833 12.7013 67.5807 14.5751C69.0782 16.4527 69.8696 19.1915 69.9161 22.8963V42.1533H62.1148V23.0825C62.2311 21.7596 61.8432 20.4406 61.0402 19.3971C60.5475 18.9742 59.9772 18.6561 59.3604 18.4583C58.7436 18.2604 58.0996 18.1906 57.4557 18.2527C56.4548 18.2139 55.4617 18.4583 54.5927 18.9665C53.7237 19.4708 53.0061 20.2156 52.5289 21.1156V42.1339H44.7275V12.3328L52.0323 12.3134Z" fill="white"/>
<path d="M74.6913 4.8916C74.6719 4.36013 74.7728 3.83254 74.9823 3.33986C75.1918 2.84718 75.506 2.40494 75.9094 2.03252C76.8444 1.29933 78.0237 0.895874 79.2379 0.895874C80.4521 0.895874 81.6276 1.29933 82.5664 2.03252C83.3655 2.79675 83.8117 3.82866 83.8117 4.90324C83.8117 5.97781 83.3655 7.00972 82.5664 7.77395C81.6353 8.50715 80.4599 8.9106 79.2495 8.9106C78.0392 8.9106 76.8637 8.50715 75.9327 7.77395C75.5293 7.40153 75.2112 6.95153 74.9978 6.45497C74.7844 5.95842 74.6836 5.42695 74.6991 4.8916H74.6913ZM83.3112 41.2837H75.1685V12.3593H83.3112V41.2798V41.2837Z" fill="white"/>
<path d="M98.1809 5.24094V12.4914H103.065V18.2717H98.1809V33.0209C98.1033 33.855 98.3244 34.6929 98.8016 35.3718C99.1197 35.6511 99.4882 35.8567 99.8878 35.9809C100.287 36.1011 100.706 36.136 101.118 36.0778C101.866 36.0817 102.611 36.0235 103.352 35.8994V41.8775C101.855 42.3507 100.295 42.5874 98.7317 42.5835C93.3899 42.5835 90.6705 39.7942 90.5735 34.2196V18.3066H86.4187V12.5263H90.5735V5.27585H98.1847V5.23706L98.1809 5.24094Z" fill="white"/>
<path d="M120.243 42.572C118.295 42.6457 116.352 42.3315 114.525 41.6449C112.701 40.9582 111.033 39.9108 109.617 38.5647C106.882 35.8918 105.521 32.3422 105.521 27.8771V27.1012C105.466 24.3391 106.06 21.6042 107.247 19.1136C108.314 16.8597 110.013 14.9666 112.139 13.667C114.319 12.3713 116.817 11.7118 119.354 11.7506C123.405 11.7506 126.617 13.0308 128.94 15.5989C131.264 18.1671 132.44 21.7943 132.44 26.4921V29.7236H113.559C113.733 31.512 114.556 33.1724 115.875 34.3944C117.225 35.5776 118.974 36.2021 120.767 36.1401C122.136 36.2021 123.505 35.9306 124.747 35.3526C125.992 34.7745 127.078 33.9017 127.916 32.8155L131.807 37.1875C130.581 38.9099 128.913 40.2716 126.981 41.1289C124.871 42.1104 122.57 42.6031 120.243 42.5681V42.572ZM119.308 18.1826C118.594 18.1554 117.884 18.2835 117.225 18.5589C116.565 18.8343 115.976 19.2455 115.491 19.7731C114.428 21.0805 113.78 22.6749 113.625 24.3507H124.638V23.7145C124.7 22.2171 124.192 20.7468 123.211 19.6141C122.702 19.1214 122.097 18.7412 121.434 18.4968C120.77 18.2524 120.064 18.1438 119.358 18.1865H119.312L119.308 18.1826Z" fill="white"/>
<path d="M153.702 41.2803H145.908V0.000244141H153.702V41.2803Z" fill="white"/>
<path d="M176.4 41.2804C176.043 40.5821 175.783 39.7131 175.62 38.6734C173.739 40.7683 171.295 41.8196 168.284 41.8196C165.437 41.8196 163.074 40.9972 161.204 39.3484C159.331 37.6997 158.396 35.6204 158.396 33.1143C158.396 30.0341 159.536 27.6677 161.821 26.019C164.106 24.3703 167.407 23.5362 171.725 23.5207H175.298V21.8526C175.298 20.5104 174.953 19.4319 174.262 18.6289C173.572 17.822 172.486 17.4185 170.996 17.4185C169.689 17.4185 168.66 17.7328 167.92 18.3612C167.175 18.9897 166.806 19.847 166.806 20.941H159.04C159.04 19.2573 159.56 17.6978 160.599 16.2664C161.639 14.8349 163.109 13.7099 165.006 12.8952C166.903 12.0805 169.037 11.6732 171.403 11.6732C174.988 11.6732 177.831 12.5732 179.938 14.3732C182.044 16.1733 183.096 18.7065 183.096 21.9651V34.5691C183.115 37.3273 183.499 39.4144 184.252 40.8304V41.2881H176.404L176.4 41.2804ZM169.976 35.8803C171.12 35.8803 172.179 35.6243 173.145 35.1161C174.111 34.604 174.829 33.9212 175.294 33.06V28.0596H172.392C168.505 28.0596 166.434 29.4018 166.185 32.0902L166.158 32.548C166.158 33.5139 166.5 34.3131 167.179 34.9415C167.861 35.57 168.792 35.8842 169.976 35.8842V35.8803Z" fill="white"/>
<path d="M214.712 27.0122C214.712 31.6713 213.719 35.3024 211.729 37.9093C209.739 40.5162 206.961 41.8197 203.396 41.8197C200.242 41.8197 197.725 40.6093 195.843 38.1925L195.494 41.2843H188.507V0.000366211H196.274V14.8078C198.066 12.713 200.421 11.6617 203.342 11.6617C206.888 11.6617 209.669 12.9651 211.686 15.572C213.704 18.179 214.708 21.8488 214.708 26.5777V27.0084L214.712 27.0122ZM206.946 26.4497C206.946 23.5131 206.48 21.3678 205.549 20.0139C204.618 18.66 203.229 17.985 201.383 17.985C198.912 17.985 197.209 18.9975 196.278 21.0225V32.4976C197.228 34.5382 198.947 35.5623 201.437 35.5623C203.928 35.5623 205.592 34.3248 206.383 31.8537C206.76 30.6705 206.946 28.8704 206.946 26.4497V26.4497Z" fill="white"/>
<path d="M258.619 27.5127H255.031V34.6352H251.811V16.1152H258.324C260.462 16.1152 262.11 16.5963 263.274 17.5545C264.438 18.5127 265.016 19.9015 265.016 21.717C265.016 22.9545 264.717 23.9942 264.12 24.8282C263.523 25.6662 262.688 26.3063 261.622 26.7563L265.78 34.4684V34.6352H262.332L258.615 27.5127H258.619ZM255.031 24.9175H258.34C259.426 24.9175 260.272 24.642 260.885 24.095C261.498 23.5481 261.8 22.7993 261.8 21.8489C261.8 20.8985 261.517 20.0877 260.954 19.5446C260.392 19.0015 259.55 18.7222 258.429 18.7066H255.031V24.9136V24.9175Z" fill="#C4C4CC"/>
<path d="M281.504 26.3683H273.896V32.0671H282.788V34.6352H270.676V16.1152H282.698V18.7105H273.896V23.8235H281.504V26.3683V26.3683Z" fill="#C4C4CC"/>
<path d="M298.382 30.3253H291.206L289.704 34.6391H286.36L293.359 16.1152H296.245L303.255 34.6391H299.895L298.382 30.3253V30.3253ZM292.11 27.73H297.479L294.794 20.045L292.11 27.73V27.73Z" fill="#C4C4CC"/>
<path d="M321.826 28.6064C321.639 30.581 320.91 32.1249 319.638 33.2306C318.365 34.3362 316.674 34.8909 314.564 34.8909C313.089 34.8909 311.79 34.5418 310.665 33.8396C309.54 33.1413 308.675 32.1443 308.062 30.8564C307.453 29.5685 307.135 28.071 307.107 26.3641V24.6339C307.107 22.8882 307.418 21.3481 308.035 20.0175C308.651 18.6869 309.544 17.6589 310.7 16.9373C311.856 16.2158 313.194 15.855 314.715 15.855C316.759 15.855 318.404 16.4097 319.649 17.5153C320.895 18.621 321.62 20.1882 321.826 22.2171H318.621C318.47 20.8865 318.082 19.9244 317.458 19.3348C316.833 18.7451 315.921 18.4503 314.715 18.4503C313.314 18.4503 312.24 18.9623 311.491 19.9865C310.738 21.0106 310.358 22.5081 310.339 24.4865V26.1275C310.339 28.1292 310.696 29.6577 311.413 30.7129C312.131 31.7642 313.179 32.2918 314.564 32.2918C315.828 32.2918 316.779 32.0086 317.415 31.4383C318.051 30.868 318.455 29.9254 318.625 28.6025H321.83L321.826 28.6064Z" fill="#C4C4CC"/>
<path d="M340.322 18.7105H334.546V34.6391H331.353V18.7105H325.627V16.1152H340.322V18.7105Z" fill="#C4C4CC"/>
<path d="M350.191 16.1152H353.396V29.1033C353.396 30.8761 352.841 32.2843 351.735 33.3279C350.63 34.3714 349.167 34.8913 347.352 34.8913C345.42 34.8913 343.926 34.4025 342.875 33.4287C341.823 32.455 341.296 31.0973 341.296 29.3593H344.5C344.5 30.3447 344.745 31.0817 345.233 31.5783C345.722 32.0749 346.428 32.3231 347.352 32.3231C348.217 32.3231 348.907 32.0361 349.419 31.4658C349.931 30.8917 350.187 30.1041 350.187 29.0916V16.1152H350.191Z" fill="#C4C4CC"/>
<path d="M369.359 29.8672C369.359 29.0526 369.072 28.4241 368.502 27.9857C367.931 27.5474 366.896 27.1012 365.402 26.6512C363.908 26.2012 362.721 25.7008 361.841 25.1499C360.153 24.0909 359.308 22.706 359.308 21.0029C359.308 19.5094 359.917 18.2796 361.135 17.3137C362.353 16.3477 363.932 15.8628 365.875 15.8628C367.163 15.8628 368.312 16.0994 369.324 16.5766C370.333 17.0499 371.128 17.7288 371.702 18.6055C372.28 19.4822 372.567 20.4559 372.567 21.5266H369.363C369.363 20.5607 369.06 19.8042 368.455 19.2572C367.85 18.7102 366.981 18.4348 365.852 18.4348C364.801 18.4348 363.982 18.6598 363.404 19.1098C362.822 19.5598 362.531 20.1883 362.531 20.9913C362.531 21.6702 362.846 22.2366 363.474 22.6904C364.102 23.1443 365.134 23.5866 366.577 24.0133C368.021 24.44 369.177 24.9288 370.049 25.4758C370.922 26.0228 371.562 26.6512 371.97 27.3573C372.377 28.0672 372.579 28.8935 372.579 29.8439C372.579 31.3879 371.989 32.6138 370.806 33.5254C369.623 34.4371 368.017 34.8949 365.992 34.8949C364.649 34.8949 363.42 34.6466 362.295 34.15C361.17 33.6535 360.297 32.9707 359.672 32.094C359.048 31.2211 358.737 30.2008 358.737 29.0409H361.957C361.957 30.0922 362.306 30.9069 363.001 31.4849C363.695 32.0629 364.692 32.35 365.992 32.35C367.113 32.35 367.951 32.125 368.517 31.6711C369.08 31.2172 369.363 30.6159 369.363 29.8711L369.359 29.8672Z" fill="#C4C4CC"/>
<path d="M236.236 52.1072H228.442V0.895996H236.236V52.1072Z" fill="#00B37E"/>
</svg>
